<svg width="30px" height="30px" viewBox="0 0 0.9 0.9" fill="none" xmlns="http://www.w3.org/2000/svg"><path d="M0.144 0.15h0.168L0.366 0.286l-0.087 0.058A0.037 0.037 0 0 0 0.263 0.375c0 0.004 0 0 0 0v0.001a0.075 0.075 0 0 0 0 0.005q0 0.005 0.001 0.012c0.001 0.01 0.004 0.024 0.01 0.041 0.011 0.033 0.033 0.076 0.075 0.118s0.085 0.064 0.118 0.075c0.016 0.005 0.03 0.008 0.041 0.01a0.15 0.15 0 0 0 0.017 0.002l0 0h0s0.004 0 0 0a0.037 0.037 0 0 0 0.034 -0.021l0.025 -0.05 0.166 0.028v0.162c-0.079 0.011 -0.293 0.023 -0.461 -0.145S0.132 0.229 0.144 0.15m0.197 0.243 0.068 -0.045a0.075 0.075 0 0 0 0.028 -0.09L0.382 0.122A0.075 0.075 0 0 0 0.312 0.075H0.142c-0.034 0 -0.066 0.024 -0.072 0.061 -0.013 0.084 -0.03 0.332 0.166 0.528s0.444 0.179 0.528 0.166c0.037 -0.006 0.061 -0.038 0.061 -0.072v-0.164a0.075 0.075 0 0 0 -0.063 -0.074l-0.166 -0.028a0.075 0.075 0 0 0 -0.079 0.04l-0.013 0.026a0.188 0.188 0 0 1 -0.014 -0.004c-0.023 -0.008 -0.056 -0.024 -0.088 -0.057s-0.049 -0.065 -0.057 -0.088a0.188 0.188 0 0 1 -0.005 -0.017z" fill="#0D0D0D"/></svg>