<svg fill="#000000" width="30px" height="30px" viewBox="0 0 1.35 1.35" version="1.1" preserveAspectRatio="xMidYMid meet" xmlns="http://www.w3.org/2000/svg" xmlns:xlink="http://www.w3.org/1999/xlink"><title>email-line</title><path class="clr-i-outline clr-i-outline-path-1" d="M1.2 0.225H0.15a0.075 0.075 0 0 0 -0.075 0.075v0.75a0.075 0.075 0 0 0 0.075 0.075h1.05a0.075 0.075 0 0 0 0.075 -0.075V0.3a0.075 0.075 0 0 0 -0.075 -0.075m-0.058 0.825H0.212l0.263 -0.272 -0.054 -0.052L0.15 1.006V0.357l0.466 0.464a0.075 0.075 0 0 0 0.106 0L1.2 0.345v0.656l-0.276 -0.276 -0.053 0.053ZM0.199 0.3h0.94L0.669 0.768Z"/><path x="0" y="0" width="36" height="36" fill-opacity="0" d="M0 0H1.35V1.35H0V0z"/></svg>