<svg width="30px" height="30px" viewBox="0 0 7.2 7.2" xmlns="http://www.w3.org/2000/svg" fill="none"><path stroke="#000000" stroke-width="0.44999999999999996" d="M3.6 0.825a1.946 1.946 0 0 0 -1.379 0.574A1.964 1.964 0 0 0 1.65 2.784c0 0.622 0.161 1.075 0.78 1.834a6.139 6.139 0 0 1 0.752 1.064C3.407 6.14 3.38 6.45 3.6 6.45s0.193 -0.31 0.418 -0.768a6.139 6.139 0 0 1 0.752 -1.064C5.389 3.859 5.55 3.407 5.55 2.784a1.964 1.964 0 0 0 -0.571 -1.385A1.946 1.946 0 0 0 3.6 0.825Z"/><path cx="96" cy="74" r="20" stroke="#000000" stroke-width="0.44999999999999996" d="M4.35 2.775A0.75 0.75 0 0 1 3.6 3.525A0.75 0.75 0 0 1 2.85 2.775A0.75 0.75 0 0 1 4.35 2.775z"/></svg>